<mxfile host="app.diagrams.net" modified="2023-01-11T15:17:48.056Z" agent="5.0 (Windows NT 10.0; Win64; x64) AppleWebKit/537.36 (KHTML, like Gecko) Chrome/108.0.0.0 Safari/537.36 OPR/94.0.0.0" etag="C6AuCY61Vggb8508kVOw" version="20.8.3" type="github">
  <diagram name="Page-1" id="e7e014a7-5840-1c2e-5031-d8a46d1fe8dd">
    <mxGraphModel dx="2238" dy="1356" grid="1" gridSize="10" guides="1" tooltips="1" connect="1" arrows="1" fold="1" page="1" pageScale="1" pageWidth="1169" pageHeight="826" background="none" math="0" shadow="0">
      <root>
        <mxCell id="0" />
        <mxCell id="1" parent="0" />
        <mxCell id="b1CHY-cMupSi3q35blBc-41" value="HRD" style="swimlane;whiteSpace=wrap;startSize=23;" parent="1" vertex="1">
          <mxGeometry x="-1120" y="120" width="490" height="620" as="geometry" />
        </mxCell>
        <mxCell id="b1CHY-cMupSi3q35blBc-42" value="" style="ellipse;shape=startState;fillColor=#000000;strokeColor=#ff0000;" parent="b1CHY-cMupSi3q35blBc-41" vertex="1">
          <mxGeometry x="100" y="40" width="30" height="30" as="geometry" />
        </mxCell>
        <mxCell id="b1CHY-cMupSi3q35blBc-43" value="" style="edgeStyle=elbowEdgeStyle;elbow=horizontal;verticalAlign=bottom;endArrow=open;endSize=8;strokeColor=#FF0000;endFill=1;rounded=0" parent="b1CHY-cMupSi3q35blBc-41" source="b1CHY-cMupSi3q35blBc-42" edge="1">
          <mxGeometry x="100" y="40" as="geometry">
            <mxPoint x="115.16666666666674" y="110" as="targetPoint" />
          </mxGeometry>
        </mxCell>
        <mxCell id="b1CHY-cMupSi3q35blBc-44" value="Menekan tombol recitment&amp;nbsp;" style="rounded=1;whiteSpace=wrap;html=1;" parent="b1CHY-cMupSi3q35blBc-41" vertex="1">
          <mxGeometry x="55" y="112" width="120" height="60" as="geometry" />
        </mxCell>
        <mxCell id="b1CHY-cMupSi3q35blBc-46" value="memilih lowongan yang ada" style="whiteSpace=wrap;html=1;fillColor=rgb(255, 255, 255);strokeColor=rgb(0, 0, 0);fontColor=rgb(0, 0, 0);rounded=1;" parent="b1CHY-cMupSi3q35blBc-41" vertex="1">
          <mxGeometry x="60.5" y="192" width="120" height="60" as="geometry" />
        </mxCell>
        <mxCell id="Lv6QTMjX_OQFczKJ63qD-4" value="" style="edgeStyle=orthogonalEdgeStyle;rounded=0;orthogonalLoop=1;jettySize=auto;html=1;" edge="1" parent="b1CHY-cMupSi3q35blBc-41" source="Lv6QTMjX_OQFczKJ63qD-1" target="Lv6QTMjX_OQFczKJ63qD-3">
          <mxGeometry relative="1" as="geometry" />
        </mxCell>
        <mxCell id="Lv6QTMjX_OQFczKJ63qD-1" value="menekan tombol delete" style="whiteSpace=wrap;html=1;fillColor=rgb(255, 255, 255);strokeColor=rgb(0, 0, 0);fontColor=rgb(0, 0, 0);rounded=1;" vertex="1" parent="b1CHY-cMupSi3q35blBc-41">
          <mxGeometry x="80" y="320" width="120" height="60" as="geometry" />
        </mxCell>
        <mxCell id="Lv6QTMjX_OQFczKJ63qD-15" value="" style="edgeStyle=orthogonalEdgeStyle;rounded=0;orthogonalLoop=1;jettySize=auto;html=1;" edge="1" parent="b1CHY-cMupSi3q35blBc-41" source="Lv6QTMjX_OQFczKJ63qD-3" target="Lv6QTMjX_OQFczKJ63qD-14">
          <mxGeometry relative="1" as="geometry" />
        </mxCell>
        <mxCell id="Lv6QTMjX_OQFczKJ63qD-3" value="melakukan pembaruan pada detail lowongan" style="whiteSpace=wrap;html=1;fillColor=rgb(255, 255, 255);strokeColor=rgb(0, 0, 0);fontColor=rgb(0, 0, 0);rounded=1;" vertex="1" parent="b1CHY-cMupSi3q35blBc-41">
          <mxGeometry x="80" y="400" width="120" height="60" as="geometry" />
        </mxCell>
        <mxCell id="Lv6QTMjX_OQFczKJ63qD-17" value="" style="edgeStyle=orthogonalEdgeStyle;rounded=0;orthogonalLoop=1;jettySize=auto;html=1;" edge="1" parent="b1CHY-cMupSi3q35blBc-41" source="Lv6QTMjX_OQFczKJ63qD-14" target="Lv6QTMjX_OQFczKJ63qD-16">
          <mxGeometry relative="1" as="geometry" />
        </mxCell>
        <mxCell id="Lv6QTMjX_OQFczKJ63qD-19" value="" style="edgeStyle=orthogonalEdgeStyle;rounded=0;orthogonalLoop=1;jettySize=auto;html=1;" edge="1" parent="b1CHY-cMupSi3q35blBc-41" source="Lv6QTMjX_OQFczKJ63qD-14" target="Lv6QTMjX_OQFczKJ63qD-18">
          <mxGeometry relative="1" as="geometry" />
        </mxCell>
        <mxCell id="Lv6QTMjX_OQFczKJ63qD-14" value="" style="rhombus;whiteSpace=wrap;html=1;fillColor=rgb(255, 255, 255);strokeColor=rgb(0, 0, 0);fontColor=rgb(0, 0, 0);rounded=1;" vertex="1" parent="b1CHY-cMupSi3q35blBc-41">
          <mxGeometry x="240" y="390" width="80" height="80" as="geometry" />
        </mxCell>
        <mxCell id="Lv6QTMjX_OQFczKJ63qD-16" value="menekan tombol sumbit" style="whiteSpace=wrap;html=1;fillColor=rgb(255, 255, 255);strokeColor=rgb(0, 0, 0);fontColor=rgb(0, 0, 0);rounded=1;" vertex="1" parent="b1CHY-cMupSi3q35blBc-41">
          <mxGeometry x="220" y="520" width="120" height="60" as="geometry" />
        </mxCell>
        <mxCell id="Lv6QTMjX_OQFczKJ63qD-18" value="menutup laman browser" style="whiteSpace=wrap;html=1;fillColor=rgb(255, 255, 255);strokeColor=rgb(0, 0, 0);fontColor=rgb(0, 0, 0);rounded=1;" vertex="1" parent="b1CHY-cMupSi3q35blBc-41">
          <mxGeometry x="360" y="400" width="120" height="60" as="geometry" />
        </mxCell>
        <mxCell id="Lv6QTMjX_OQFczKJ63qD-24" value="yes" style="text;html=1;align=center;verticalAlign=middle;resizable=0;points=[];autosize=1;strokeColor=none;fillColor=none;" vertex="1" parent="b1CHY-cMupSi3q35blBc-41">
          <mxGeometry x="280" y="480" width="40" height="30" as="geometry" />
        </mxCell>
        <mxCell id="b1CHY-cMupSi3q35blBc-54" value="Sistem" style="swimlane;whiteSpace=wrap" parent="1" vertex="1">
          <mxGeometry x="-630" y="120" width="430" height="620" as="geometry" />
        </mxCell>
        <mxCell id="b1CHY-cMupSi3q35blBc-55" value="menampilkan menu recuitment" style="whiteSpace=wrap;html=1;fillColor=rgb(255, 255, 255);strokeColor=rgb(0, 0, 0);fontColor=rgb(0, 0, 0);rounded=1;" parent="b1CHY-cMupSi3q35blBc-54" vertex="1">
          <mxGeometry x="140.5" y="112" width="120" height="60" as="geometry" />
        </mxCell>
        <mxCell id="b1CHY-cMupSi3q35blBc-47" value="menampilkan detail lowongan kerja" style="whiteSpace=wrap;html=1;fillColor=rgb(255, 255, 255);strokeColor=rgb(0, 0, 0);fontColor=rgb(0, 0, 0);rounded=1;" parent="b1CHY-cMupSi3q35blBc-54" vertex="1">
          <mxGeometry x="150" y="252" width="120" height="60" as="geometry" />
        </mxCell>
        <mxCell id="Lv6QTMjX_OQFczKJ63qD-13" value="" style="edgeStyle=orthogonalEdgeStyle;rounded=0;orthogonalLoop=1;jettySize=auto;html=1;" edge="1" parent="b1CHY-cMupSi3q35blBc-54" source="Lv6QTMjX_OQFczKJ63qD-10" target="Lv6QTMjX_OQFczKJ63qD-12">
          <mxGeometry relative="1" as="geometry" />
        </mxCell>
        <mxCell id="Lv6QTMjX_OQFczKJ63qD-10" value="menampilkan pesan berhasil melakukan pembaruan data" style="whiteSpace=wrap;html=1;fillColor=rgb(255, 255, 255);strokeColor=rgb(0, 0, 0);fontColor=rgb(0, 0, 0);rounded=1;" vertex="1" parent="b1CHY-cMupSi3q35blBc-54">
          <mxGeometry x="130" y="520" width="120" height="60" as="geometry" />
        </mxCell>
        <mxCell id="Lv6QTMjX_OQFczKJ63qD-12" value="" style="ellipse;html=1;shape=endState;fillColor=#000000;strokeColor=#ff0000;" vertex="1" parent="b1CHY-cMupSi3q35blBc-54">
          <mxGeometry x="300" y="535" width="30" height="30" as="geometry" />
        </mxCell>
        <mxCell id="Lv6QTMjX_OQFczKJ63qD-22" style="edgeStyle=orthogonalEdgeStyle;rounded=0;orthogonalLoop=1;jettySize=auto;html=1;entryX=1;entryY=0.5;entryDx=0;entryDy=0;" edge="1" parent="b1CHY-cMupSi3q35blBc-54" source="Lv6QTMjX_OQFczKJ63qD-20" target="b1CHY-cMupSi3q35blBc-55">
          <mxGeometry relative="1" as="geometry">
            <Array as="points">
              <mxPoint x="340" y="430" />
              <mxPoint x="340" y="142" />
            </Array>
          </mxGeometry>
        </mxCell>
        <mxCell id="Lv6QTMjX_OQFczKJ63qD-20" value="menampilkan pesan kesalahan&amp;nbsp;" style="whiteSpace=wrap;html=1;fillColor=rgb(255, 255, 255);strokeColor=rgb(0, 0, 0);fontColor=rgb(0, 0, 0);rounded=1;" vertex="1" parent="b1CHY-cMupSi3q35blBc-54">
          <mxGeometry x="140.5" y="400" width="120" height="60" as="geometry" />
        </mxCell>
        <mxCell id="b1CHY-cMupSi3q35blBc-61" value="" style="edgeStyle=orthogonalEdgeStyle;rounded=0;orthogonalLoop=1;jettySize=auto;html=1;" parent="1" source="b1CHY-cMupSi3q35blBc-44" target="b1CHY-cMupSi3q35blBc-55" edge="1">
          <mxGeometry relative="1" as="geometry" />
        </mxCell>
        <mxCell id="b1CHY-cMupSi3q35blBc-62" value="" style="edgeStyle=orthogonalEdgeStyle;rounded=0;orthogonalLoop=1;jettySize=auto;html=1;" parent="1" source="b1CHY-cMupSi3q35blBc-55" target="b1CHY-cMupSi3q35blBc-46" edge="1">
          <mxGeometry relative="1" as="geometry">
            <Array as="points">
              <mxPoint x="-420" y="342" />
            </Array>
          </mxGeometry>
        </mxCell>
        <mxCell id="b1CHY-cMupSi3q35blBc-45" value="" style="edgeStyle=orthogonalEdgeStyle;rounded=0;orthogonalLoop=1;jettySize=auto;html=1;" parent="1" source="b1CHY-cMupSi3q35blBc-46" target="b1CHY-cMupSi3q35blBc-47" edge="1">
          <mxGeometry relative="1" as="geometry">
            <Array as="points">
              <mxPoint x="-980" y="410" />
            </Array>
          </mxGeometry>
        </mxCell>
        <mxCell id="Lv6QTMjX_OQFczKJ63qD-2" value="" style="edgeStyle=orthogonalEdgeStyle;rounded=0;orthogonalLoop=1;jettySize=auto;html=1;" edge="1" parent="1" source="b1CHY-cMupSi3q35blBc-47" target="Lv6QTMjX_OQFczKJ63qD-1">
          <mxGeometry relative="1" as="geometry">
            <Array as="points">
              <mxPoint x="-420" y="470" />
            </Array>
          </mxGeometry>
        </mxCell>
        <mxCell id="Lv6QTMjX_OQFczKJ63qD-11" value="" style="edgeStyle=orthogonalEdgeStyle;rounded=0;orthogonalLoop=1;jettySize=auto;html=1;exitX=1;exitY=0.5;exitDx=0;exitDy=0;" edge="1" parent="1" source="Lv6QTMjX_OQFczKJ63qD-16" target="Lv6QTMjX_OQFczKJ63qD-10">
          <mxGeometry relative="1" as="geometry">
            <mxPoint x="-700" y="550.090909090909" as="sourcePoint" />
          </mxGeometry>
        </mxCell>
        <mxCell id="Lv6QTMjX_OQFczKJ63qD-21" value="" style="edgeStyle=orthogonalEdgeStyle;rounded=0;orthogonalLoop=1;jettySize=auto;html=1;" edge="1" parent="1" source="Lv6QTMjX_OQFczKJ63qD-18" target="Lv6QTMjX_OQFczKJ63qD-20">
          <mxGeometry relative="1" as="geometry" />
        </mxCell>
        <mxCell id="Lv6QTMjX_OQFczKJ63qD-23" value="no" style="text;html=1;align=center;verticalAlign=middle;resizable=0;points=[];autosize=1;strokeColor=none;fillColor=none;" vertex="1" parent="1">
          <mxGeometry x="-810" y="525" width="40" height="30" as="geometry" />
        </mxCell>
      </root>
    </mxGraphModel>
  </diagram>
</mxfile>
